<?xml version="1.0" encoding="UTF-8"?>
<svg xmlns="http://www.w3.org/2000/svg" viewBox="0 0 800 390">
  <g>
    <!-- DressUp Text -->
    <path d="M238 130c0 0-9-2-13 3s-7 17-7 34 1 33 6 38 13 5 13 5c12 3 19-4 24-13s7-30 7-45-4-19-11-23-19-1-19 1z" fill="#1c8c35"/>
    <path d="M237 125c5-1 18-4 30 5s11 22 11 39-5 33-12 41-15 10-29 7-20-17-20-38 0-40 6-47 9-6 14-7z" stroke="#1c8c35" stroke-width="10" fill="none"/>
    <path d="M301 130c0 0-9-2-13 3s-7 17-7 34 1 33 6 38 13 5 13 5c12 3 19-4 24-13s7-30 7-45-4-19-11-23-19-1-19 1z" fill="#1c8c35"/>
    <path d="M300 125c5-1 18-4 30 5s11 22 11 39-5 33-12 41-15 10-29 7-20-17-20-38 0-40 6-47 9-6 14-7z" stroke="#1c8c35" stroke-width="10" fill="none"/>
    <path d="M393 135c-4-1-10-1-17 1s-14 12-14 35 2 37 8 41 15 4 19 4 11-2 15-5 8-10 8-18 1-21-6-27-15-5-15-5c-4 0-8 2-8 10 0 0 1-6 7-6s10 4 10 13-2 14-8 14-9-6-9-14 0-31 4-37 10-7 15-5 7 8 7 8c0-6-1-9-6-10s-10 1-10 1z" fill="#1c8c35"/>
    <path d="M393 129c6-1 17-1 24 7s9 19 9 30-2 21-11 25-13 3-19 3-14-2-20-7-10-19-10-38 2-20 14-24c0 0 7-2 13 4z" stroke="#1c8c35" stroke-width="10" fill="none"/>
    <path d="M437 127c0 0 5-6 14-6s18 4 18 17 0 13 0 13c0 0-2-8-10-8s-13 7-13 19 2 28 10 28 10-9 10-9v10h12v-51c0-10-4-14-11-17s-18-1-23 3-7 7-7 7v-6z" fill="#1c8c35"/>
    <path d="M451 116c11 0 22 6 22 20s0 13 0 13c-1-6-5-10-10-10s-15 6-15 20 2 30 12 30 10-9 10-9v10h17v-54c0-29-28-32-36-27s-10 17-10 17l10-10z" stroke="#1c8c35" stroke-width="10" fill="none"/>
    <path d="M528 127c0 0 5-6 14-6s18 4 18 17 0 13 0 13c0 0-2-8-10-8s-13 7-13 19 2 28 10 28 10-9 10-9v10h12v-51c0-10-4-14-11-17s-18-1-23 3-7 7-7 7v-6z" fill="#1c8c35"/>
    <path d="M542 116c11 0 22 6 22 20s0 13 0 13c-1-6-5-10-10-10s-15 6-15 20 2 30 12 30 10-9 10-9v10h17v-54c0-29-28-32-36-27s-10 17-10 17l10-10z" stroke="#1c8c35" stroke-width="10" fill="none"/>
    <path d="M597 127c0 0-5-6-14-6s-18 4-18 17 0 13 0 13c0 0 2-8 10-8s13 7 13 19-2 28-10 28-10-9-10-9v10h-12v-51c0-10 4-14 11-17s18-1 23 3 7 7 7 7v-6z" fill="#1c8c35"/>
    <path d="M583 116c-11 0-22 6-22 20s0 13 0 13c1-6 5-10 10-10s15 6 15 20-2 30-12 30-10-9-10-9v10h-17v-54c0-29 28-32 36-27s10 17 10 17l-10-10z" stroke="#1c8c35" stroke-width="10" fill="none"/>
    <path d="M662 130c0 0-9-2-13 3s-7 17-7 34 1 33 6 38 13 5 13 5c12 3 19-4 24-13s7-30 7-45-4-19-11-23-19-1-19 1z" fill="#1c8c35"/>
    <path d="M661 125c5-1 18-4 30 5s11 22 11 39-5 33-12 41-15 10-29 7-20-17-20-38 0-40 6-47 9-6 14-7z" stroke="#1c8c35" stroke-width="10" fill="none"/>

    <!-- Shopping Bag Icon -->
    <path d="M810 170c-10-20-30-40-50-50 0 0-100 10-120 20s-20 40-20 40l10 30c0 0 20-30 60-40s60 0 80 20c0 0 0-10 10-10s20 0 30-10z" fill="#b8e6b4"/>
    <path d="M810 170c-10-20-30-40-50-50" stroke="#1c8c35" stroke-width="5" fill="none"/>
    <circle cx="790" cy="115" r="10" stroke="#1c8c35" stroke-width="5" fill="none"/>
    <circle cx="820" cy="145" r="10" stroke="#1c8c35" stroke-width="5" fill="none"/>
    <path d="M780 125c-10 0-80 10-100 20s-20 40-20 40l10 30" stroke="#1c8c35" stroke-width="5" fill="none"/>
    <path d="M670 185c0 0 20-30 60-40s60 0 80 20" stroke="#1c8c35" stroke-width="5" fill="none"/>
    <path d="M810 165c0 0 0-10 10-10s20 0 30-10" stroke="#1c8c35" stroke-width="5" fill="none"/>

    <!-- Tagline -->
    <path d="M330 280 h8 v-1 h-3 v-10 h-2 v10 h-3 Z" fill="#1c8c35"/>
    <path d="M344 280 v-11 h-2 v5 h-5 v-5 h-2 v11 h2 v-4 h5 v4 Z" fill="#1c8c35"/>
    <path d="M349 280 v-11 h7 v2 h-5 v2 h4 v2 h-4 v3 h5 v2 Z" fill="#1c8c35"/>
    <path d="M362 280 v-11 h3 l2 7 l2 -7 h3 v11 h-2 v-8 l-3 8 h-1 l-2 -8 v8 Z" fill="#1c8c35"/>
    <path d="M380 280 v-11 h2 v4 h1 l3 -4 h3 l-4 5 l4 6 h-3 l-3 -5 h-1 v5 Z" fill="#1c8c35"/>
    <path d="M395 280 h-2 v-9 h-3 v-2 h8 v2 h-3 Z" fill="#1c8c35"/>
    <path d="M415 280 v-11 h2 v11 Z" fill="#1c8c35"/>
    <path d="M430 280 v-11 h2 v11 Z" fill="#1c8c35"/>
    <path d="M445 280 v-9 h-3 v-2 h8 v2 h-3 v9 Z" fill="#1c8c35"/>
    
    <path d="M465 280 v-11 h2 v11 Z" fill="#1c8c35"/>
    <path d="M475 280 v-11 h3 l3 8 v-8 h2 v11 h-3 l-3 -8 v8 Z" fill="#1c8c35"/>
    <path d="M490 280 v-11 h-2 v11 Z" fill="#1c8c35"/>
    <path d="M500 280 v-11 h3 l3 8 v-8 h2 v11 h-3 l-3 -8 v8 Z" fill="#1c8c35"/>
    <path d="M514 280 v-11 h7 v2 h-5 v2 h4 v2 h-4 v3 h5 v2 Z" fill="#1c8c35"/>
  </g>
</svg>