<?xml version="1.0" encoding="UTF-8"?>
<svg xmlns="http://www.w3.org/2000/svg" viewBox="0 0 300 80">
  <g>
    <!-- Stylized 'dress' text based on the image -->
    <path d="M30,30 C34,30 36,32 36,40 C36,48 32,50 30,50 C28,50 24,48 24,40 C24,32 26,30 30,30 Z" fill="#1c8c35" />
    <path d="M45,30 C48,30 50,32 50,35 C50,38 48,40 45,40 C45,40 45,43 45,45 C45,47 47,50 50,50 C50,50 45,55 40,50 C35,45 40,30 45,30 Z" fill="#1c8c35" />
    <path d="M55,30 C57,30 60,31 60,38 C60,45 57,50 55,50 C53,50 50,45 50,38 C50,31 53,30 55,30 Z" fill="#1c8c35" />
    <path d="M70,30 C75,30 80,35 75,45 C70,55 65,50 65,50 C65,50 65,30 70,30 Z" fill="#1c8c35" />
    <path d="M85,30 C85,30 85,50 85,50 C85,50 90,50 90,50 C90,50 90,30 85,30 Z" fill="#1c8c35" />
    
    <!-- Handle on shopping bag -->
    <path d="M95,35 C95,25 110,25 110,35" stroke="#1c8c35" stroke-width="2" fill="none" />
    
    <!-- Shopping bag body -->
    <path d="M90,35 L115,35 L110,55 L95,55 Z" fill="#68c3e8" stroke="#1c8c35" stroke-width="2" />
    
    <!-- 'UP' text -->
    <path d="M130,30 C135,30 140,35 140,40 C140,45 135,50 130,50 L130,30 Z" fill="#1c8c35" />
    <path d="M145,30 L145,50 L155,50 L155,40 L145,40 L145,30 Z" fill="#1c8c35" />
    
    <!-- Tagline - "cheap - chic - unique" -->
    <text x="50" y="65" font-family="Arial" font-size="8" fill="#1c8c35">cheap - chic - unique</text>
  </g>
</svg>