<?xml version="1.0" standalone="no"?>
<!DOCTYPE svg PUBLIC "-//W3C//DTD SVG 20010904//EN"
 "http://www.w3.org/TR/2001/REC-SVG-20010904/DTD/svg10.dtd">
<svg version="1.0" xmlns="http://www.w3.org/2000/svg"
 width="1958.000000pt" height="754.000000pt" viewBox="0 0 1958.000000 754.000000"
 preserveAspectRatio="xMidYMid meet">

<g transform="translate(0.000000,754.000000) scale(0.100000,-0.100000)"
fill="#000000" stroke="none">
<path d="M6645 5306 c-147 -29 -231 -63 -327 -133 -61 -44 -132 -139 -159
-213 l-21 -59 -59 49 c-171 143 -400 210 -714 210 -383 0 -625 -110 -733 -333
-83 -170 -83 -181 -65 -1027 9 -384 15 -511 27 -565 42 -184 157 -310 331
-361 70 -21 225 -23 325 -5 261 47 580 206 737 367 39 41 74 71 76 67 2 -5 12
-32 22 -61 49 -152 190 -276 356 -312 81 -18 192 0 285 45 94 46 180 136 231
243 l37 77 58 -117 c156 -317 388 -408 638 -250 43 27 57 32 70 23 46 -35 162
-80 230 -90 88 -13 791 11 875 30 63 14 166 60 184 82 18 23 30 22 99 -13 131
-65 340 -103 567 -103 128 1 164 4 246 26 98 26 213 78 265 119 64 52 58 51
100 17 124 -101 375 -162 659 -162 346 1 578 126 700 378 94 195 99 416 14
620 -52 124 -127 210 -299 340 -95 72 -150 125 -150 144 0 21 60 80 119 116
24 15 87 45 140 67 52 22 114 53 137 70 156 112 177 333 49 507 -214 291 -793
256 -1149 -70 -31 -28 -58 -50 -59 -48 -1 2 -15 30 -31 62 -34 69 -120 151
-196 189 -94 47 -171 62 -315 62 -142 0 -226 -17 -373 -75 -162 -64 -331 -198
-433 -343 -29 -40 -50 -63 -53 -55 -37 118 -109 209 -199 253 -162 79 -648
132 -842 92 -102 -21 -212 -73 -264 -125 l-40 -40 -46 39 c-135 117 -288 185
-550 245 -138 32 -390 42 -500 21z m354 -212 c360 -52 585 -176 687 -376 105
-207 47 -477 -148 -684 l-48 -51 51 -84 c157 -260 216 -462 174 -604 -32 -112
-119 -202 -216 -225 -48 -12 -53 -11 -107 16 -46 24 -66 42 -103 97 -70 106
-139 300 -184 525 -8 37 -4 37 -119 16 -114 -21 -130 -36 -140 -125 -17 -154
-72 -304 -140 -377 -57 -62 -108 -86 -181 -86 -113 -1 -210 77 -252 203 -28
87 -24 317 9 541 24 153 28 216 32 500 6 410 16 484 79 567 99 133 326 188
606 147z m3139 -39 c142 -64 203 -203 121 -281 -15 -14 -70 -43 -122 -64 -118
-46 -204 -98 -271 -164 -64 -62 -96 -121 -103 -190 -11 -102 39 -176 207 -306
139 -108 177 -144 223 -209 97 -141 110 -347 31 -508 -88 -181 -254 -265 -524
-266 -176 0 -401 43 -479 91 -109 67 -151 177 -99 259 28 46 105 83 174 83 30
0 90 -13 145 -31 177 -57 241 -47 288 44 47 95 -4 170 -176 260 -269 140 -374
297 -374 557 0 122 23 226 72 324 134 269 426 442 729 432 79 -2 106 -8 158
-31z m1259 7 c103 -39 173 -123 173 -205 0 -61 -35 -97 -135 -137 -136 -54
-213 -99 -283 -164 -80 -75 -115 -141 -115 -217 0 -107 43 -165 234 -310 141
-107 180 -150 225 -244 97 -202 59 -443 -93 -583 -116 -108 -303 -154 -536
-132 -277 26 -424 86 -476 193 -45 93 -9 179 91 222 58 24 126 18 248 -20 61
-19 126 -35 143 -35 77 0 147 69 147 145 0 74 -49 121 -224 213 -175 92 -293
234 -332 398 -24 101 -15 264 21 369 107 324 428 544 770 531 59 -2 108 -10
142 -24z m-2935 -107 c146 -17 262 -39 311 -60 126 -52 153 -232 49 -331 -58
-55 -111 -64 -272 -42 -79 10 -90 9 -126 -8 -28 -14 -46 -32 -62 -66 -28 -56
-22 -90 22 -122 25 -19 42 -21 179 -21 149 0 153 -1 201 -29 65 -38 89 -91 90
-201 1 -122 -39 -193 -128 -230 -36 -15 -46 -15 -139 0 -121 21 -160 16 -203
-26 -78 -75 -45 -141 94 -192 47 -17 90 -22 238 -27 177 -6 183 -6 224 -34 63
-41 84 -97 77 -202 -6 -100 -38 -179 -89 -217 -71 -54 -96 -58 -488 -72 -214
-8 -389 -9 -423 -5 -82 12 -144 52 -176 114 -31 61 -32 103 -8 561 22 425 37
793 37 920 0 55 5 117 11 138 21 76 98 136 202 156 69 14 243 12 379 -4z
m-2797 -33 c207 -56 338 -157 420 -325 172 -354 71 -862 -238 -1203 -135 -148
-445 -296 -682 -325 -87 -10 -108 -10 -165 5 -116 30 -176 91 -201 202 -6 28
-15 241 -19 499 -5 248 -12 511 -15 585 -14 277 47 441 193 514 126 63 202 75
437 72 156 -3 204 -7 270 -24z m4585 -458 c-14 -86 -12 -211 5 -301 8 -43 15
-79 15 -81 0 -2 -24 16 -52 40 -29 25 -90 73 -135 107 -45 34 -89 73 -98 87
-14 21 -14 27 -1 47 19 29 98 88 155 117 45 22 114 49 118 46 2 -1 -2 -29 -7
-62z m-1126 -616 c32 -43 74 -90 93 -106 l36 -29 -62 -15 c-57 -14 -62 -13
-78 4 -9 10 -41 32 -70 49 -29 17 -53 32 -53 34 0 2 11 25 24 52 14 26 28 61
31 76 4 16 11 25 14 20 4 -4 33 -43 65 -85z m1375 -140 c-26 -10 -25 -11 -34
32 l-7 35 31 -30 c31 -29 31 -29 10 -37z"/>
<path d="M6833 4540 c-12 -5 -30 -21 -40 -37 -24 -36 -21 -149 9 -305 l23
-117 92 39 c112 47 221 116 257 163 74 97 22 202 -125 248 -64 20 -177 25
-216 9z"/>
<path d="M5310 4378 c-42 -22 -48 -65 -52 -349 -3 -238 -1 -268 15 -300 66
-132 232 -38 349 198 46 92 51 108 51 170 1 115 -62 206 -178 259 -64 30 -151
40 -185 22z"/>
<path d="M15687 5272 c-10 -10 -17 -30 -17 -43 0 -26 215 -952 228 -981 6 -14
25 -4 120 63 62 44 116 78 121 75 5 -3 63 -82 131 -176 67 -93 124 -170 127
-170 4 0 235 174 265 199 4 3 -51 83 -122 176 -71 94 -130 173 -130 176 0 4
50 44 111 89 62 45 108 85 103 90 -32 29 -877 520 -897 520 -13 0 -31 -8 -40
-18z"/>
<path d="M13912 5250 c-139 -19 -245 -75 -313 -165 -42 -55 -83 -145 -94 -208
-4 -20 -10 -39 -14 -41 -3 -2 -34 1 -68 6 -133 20 -269 -45 -364 -175 l-28
-38 -30 61 c-83 166 -215 250 -393 250 -138 -1 -241 -41 -328 -129 -162 -164
-206 -402 -161 -866 42 -421 71 -566 140 -709 87 -177 241 -308 419 -355 185
-49 455 -24 637 58 66 30 172 98 194 125 19 23 25 20 53 -21 91 -138 258 -210
423 -182 183 30 294 138 346 337 17 62 22 121 26 302 3 124 9 232 14 241 5 10
59 36 121 60 137 53 266 136 364 235 226 228 274 497 138 774 -103 208 -312
349 -609 410 -133 27 -377 43 -473 30z m468 -244 c254 -64 409 -193 462 -385
51 -185 -19 -351 -212 -500 -81 -63 -154 -102 -268 -146 -105 -39 -152 -78
-181 -150 -23 -55 -25 -79 -32 -295 -8 -241 -15 -294 -49 -360 -69 -135 -274
-142 -364 -11 -35 50 -64 144 -72 229 -8 84 14 1134 26 1299 13 170 43 248
115 305 55 43 89 49 285 44 158 -3 200 -8 290 -30z m-1699 -287 c59 -20 100
-59 130 -123 46 -98 52 -175 45 -511 -5 -242 -4 -316 8 -384 35 -199 144 -295
240 -210 95 83 129 354 91 717 -22 207 -4 303 72 378 87 88 210 58 273 -66 36
-71 43 -154 37 -483 -4 -226 -10 -336 -21 -397 -52 -272 -146 -420 -320 -500
-110 -51 -201 -70 -339 -70 -143 0 -219 21 -306 85 -141 104 -203 252 -236
570 -9 83 -20 177 -26 210 -16 96 -23 401 -10 481 17 109 48 182 102 236 68
68 174 95 260 67z"/>
<path d="M14218 4678 c-28 -22 -37 -87 -36 -257 2 -147 4 -167 21 -184 15 -15
27 -17 55 -12 62 11 134 57 156 100 27 53 32 140 12 203 -36 108 -153 192
-208 150z"/>
<path d="M9897 2374 c-13 -14 -7 -43 12 -53 24 -13 55 8 50 35 -4 19 -48 32
-62 18z"/>
<path d="M11880 2361 c-7 -15 -6 -23 6 -35 19 -20 29 -20 48 0 19 19 20 26 4
42 -18 18 -46 14 -58 -7z"/>
<path d="M6810 2140 l0 -230 30 0 30 0 0 106 c0 109 7 137 44 166 21 17 80 24
111 12 33 -13 45 -59 45 -174 l0 -110 25 0 25 0 0 121 c0 136 -13 180 -61 204
-57 30 -138 14 -176 -33 -11 -13 -13 1 -13 76 l0 92 -30 0 -30 0 0 -230z"/>
<path d="M9480 2140 l0 -230 25 0 c25 0 25 1 25 88 0 106 13 155 47 182 38 30
103 27 134 -6 22 -24 24 -35 27 -145 4 -118 4 -119 28 -119 24 0 24 0 24 115
0 128 -11 169 -55 203 -36 29 -108 30 -152 2 -18 -11 -33 -24 -33 -30 0 -5 -4
-10 -10 -10 -6 0 -10 37 -10 90 0 89 0 90 -25 90 l-25 0 0 -230z"/>
<path d="M6505 2236 c-119 -53 -129 -239 -16 -309 44 -26 122 -28 169 -3 29
15 72 68 72 89 0 17 -48 5 -68 -18 -49 -57 -121 -56 -171 1 -24 26 -31 44 -31
75 0 79 45 129 118 129 35 0 49 -6 74 -30 28 -28 78 -41 78 -21 0 16 -51 71
-81 86 -35 18 -104 19 -144 1z"/>
<path d="M7305 2236 c-62 -28 -95 -85 -95 -163 0 -111 105 -193 209 -163 37
10 101 66 101 87 0 22 -45 14 -70 -12 -47 -50 -136 -38 -173 24 -35 59 -31 61
123 61 139 0 140 0 140 23 0 34 -41 108 -72 131 -34 25 -122 31 -163 12z m144
-62 c17 -14 31 -34 31 -45 0 -18 -8 -19 -110 -19 -73 0 -110 4 -110 11 0 6 15
26 34 45 45 45 108 48 155 8z"/>
<path d="M7670 2228 c-18 -13 -42 -35 -53 -50 -24 -33 -33 -114 -18 -161 38
-114 184 -151 255 -66 l26 31 0 -36 c0 -32 3 -36 25 -36 l25 0 0 165 0 165
-25 0 c-21 0 -25 -5 -25 -32 0 -32 0 -32 -16 -10 -38 55 -135 69 -194 30z
m160 -48 c115 -82 11 -277 -116 -216 -87 41 -98 169 -20 217 40 25 100 24 136
-1z"/>
<path d="M8157 2232 c-15 -10 -34 -27 -42 -38 -14 -18 -14 -17 -15 14 0 27 -4
32 -25 32 l-25 0 0 -220 0 -220 25 0 c25 0 25 1 25 91 l0 91 25 -31 c89 -106
265 -23 265 125 0 53 -37 123 -79 151 -43 29 -114 31 -154 5z m137 -57 c70
-65 56 -172 -28 -211 -91 -44 -188 48 -162 152 4 15 21 40 38 56 41 38 112 40
152 3z"/>
<path d="M9164 2231 c-172 -105 -69 -374 123 -322 38 11 94 60 106 94 11 30
-41 21 -69 -13 -31 -37 -78 -47 -127 -27 -44 19 -67 61 -67 123 0 39 5 51 34
80 29 29 41 34 81 34 38 0 52 -5 77 -30 17 -17 40 -30 55 -30 l25 0 -19 32
c-43 74 -148 102 -219 59z"/>
<path d="M10135 2236 c-119 -53 -129 -239 -16 -309 44 -26 122 -28 169 -3 29
15 72 68 72 89 0 17 -48 5 -68 -18 -49 -57 -121 -56 -171 1 -24 26 -31 44 -31
75 0 79 45 129 118 129 35 0 49 -6 74 -30 28 -28 78 -41 78 -21 0 16 -51 71
-81 86 -35 18 -104 19 -144 1z"/>
<path d="M11563 2229 c-18 -12 -33 -25 -33 -30 0 -5 -4 -9 -10 -9 -5 0 -10 11
-10 25 0 20 -5 25 -25 25 l-25 0 0 -165 0 -165 30 0 30 0 0 105 c0 146 22 185
104 185 81 0 96 -29 96 -180 l0 -110 25 0 25 0 0 121 c0 136 -13 180 -61 204
-41 22 -108 19 -146 -6z"/>
<path d="M12110 2232 c-41 -20 -77 -70 -86 -120 -16 -84 42 -182 119 -203 51
-14 91 -4 133 33 l34 30 0 -86 0 -86 30 0 30 0 0 220 0 220 -25 0 c-21 0 -25
-5 -25 -30 0 -32 -14 -40 -24 -15 -9 26 -69 55 -111 55 -22 0 -56 -8 -75 -18z
m166 -66 c29 -29 34 -41 34 -81 0 -57 -23 -100 -66 -120 -43 -20 -73 -19 -112
5 -70 43 -78 136 -17 197 28 28 40 33 80 33 40 0 52 -5 81 -34z"/>
<path d="M12945 2236 c-62 -28 -95 -85 -95 -163 0 -111 105 -193 209 -163 37
10 101 66 101 87 0 22 -45 14 -70 -12 -47 -50 -136 -38 -173 24 -35 59 -31 61
123 61 139 0 140 0 140 23 0 34 -41 108 -72 131 -34 25 -122 31 -163 12z m144
-62 c17 -14 31 -34 31 -45 0 -18 -8 -19 -110 -19 -73 0 -110 4 -110 11 0 6 15
26 34 45 45 45 108 48 155 8z"/>
<path d="M9900 2075 l0 -165 25 0 25 0 0 165 0 165 -25 0 -25 0 0 -165z"/>
<path d="M11061 2117 c4 -133 13 -160 66 -194 39 -26 133 -24 170 3 51 37 63
77 63 202 l0 112 -25 0 c-25 0 -25 0 -25 -99 0 -115 -12 -156 -51 -176 -34
-18 -60 -19 -93 -4 -42 19 -56 65 -56 178 l0 101 -26 0 -26 0 3 -123z"/>
<path d="M11880 2075 l0 -165 30 0 30 0 0 165 0 165 -30 0 -30 0 0 -165z"/>
<path d="M12471 2117 c4 -133 13 -160 66 -194 39 -26 133 -24 170 3 51 37 63
77 63 202 l0 112 -25 0 c-25 0 -25 0 -25 -99 0 -115 -12 -156 -51 -176 -34
-18 -60 -19 -93 -4 -42 19 -56 65 -56 178 l0 101 -26 0 -26 0 3 -123z"/>
<path d="M8630 2090 c0 -19 7 -20 105 -20 98 0 105 1 105 20 0 19 -7 20 -105
20 -98 0 -105 -1 -105 -20z"/>
<path d="M10600 2090 c0 -19 7 -20 100 -20 93 0 100 1 100 20 0 19 -7 20 -100
20 -93 0 -100 -1 -100 -20z"/>
</g>
</svg>


